<svg width="1731" height="1440" viewBox="0 0 1731 1440" fill="none" xmlns="http://www.w3.org/2000/svg">
<path d="M864 181L726 429C787.438 393.394 881 387.43 986 414.215C1091 441 1175.79 481.241 1207 535L1731 1440H0L759 122L713 95L902 0L912 215L864 181Z" fill="black"/>
<path d="M762 1317H206L546 728C564.373 775.013 579.956 794.018 612 822C682.455 870.076 736.255 892.087 865 920C910.658 931.063 933.749 937.836 970 951C1039.74 982.81 1061.62 1011.21 1063 1085C1049.11 1148.6 1022.47 1174.21 932 1197C829.152 1207.59 784.617 1199.77 727 1163C680.648 1125.59 665.456 1097.72 657 1036H684L580 904L476 1036H504C508.411 1118.65 527.057 1158.33 580 1221C644.152 1277.63 683.63 1299.67 762 1317Z" fill="white"/>
<path d="M1178 1197C1126.53 1264.56 1083.8 1290.02 987 1317H1525C1525 1317 1294 920 1153 675L1117 614C1081.88 585.501 1066 570.904 1018 549C970 527.096 929.603 516.007 865 516C760 532 751.941 542.172 714 582C681.393 627.752 680 682 707 716C733.797 749.745 770 760.318 809.112 771.741L810 772C905.971 793.65 958.504 806.702 1041 838C1133.44 877.411 1172 891 1206 983C1240 1075 1218.5 1128.35 1178 1197Z" fill="white"/>
</svg>
