<svg width="37" height="37" viewBox="0 0 37 37" fill="none" xmlns="http://www.w3.org/2000/svg">
<g clip-path="url(#clip0)">
<path d="M36.9637 10.8781C36.8771 8.91215 36.5591 7.56057 36.1037 6.38942C35.6339 5.14626 34.9111 4.03327 33.9641 3.10803C33.0389 2.16839 31.9186 1.43825 30.6898 0.975777C29.5119 0.520358 28.1674 0.20244 26.2014 0.11576C24.2208 0.0217404 23.592 0 18.5685 0C13.5451 0 12.9163 0.0217404 10.943 0.10842C8.97709 0.195099 7.62551 0.513299 6.45464 0.968436C5.2112 1.43825 4.09821 2.16105 3.17297 3.10803C2.23333 4.03327 1.50348 5.1536 1.04072 6.38236C0.585299 7.56057 0.267381 8.90481 0.180702 10.8708C0.0866818 12.8514 0.0649414 13.4802 0.0649414 18.5036C0.0649414 23.5271 0.0866818 24.1558 0.173361 26.1291C0.26004 28.0951 0.57824 29.4467 1.03366 30.6178C1.50348 31.861 2.23333 32.974 3.17297 33.8992C4.09821 34.8388 5.21854 35.569 6.4473 36.0315C7.62551 36.4869 8.96975 36.8048 10.936 36.8915C12.909 36.9784 13.538 36.9999 18.5615 36.9999C23.5849 36.9999 24.2137 36.9784 26.187 36.8915C28.153 36.8048 29.5045 36.4869 30.6754 36.0315C33.162 35.0701 35.1279 33.1041 36.0893 30.6178C36.5445 29.4396 36.8627 28.0951 36.9493 26.1291C37.036 24.1558 37.0578 23.5271 37.0578 18.5036C37.0578 13.4802 37.0504 12.8514 36.9637 10.8781ZM33.6318 25.9846C33.5522 27.7916 33.2487 28.7673 32.9957 29.4179C32.374 31.0298 31.0947 32.309 29.4828 32.9308C28.8323 33.1837 27.8494 33.4873 26.0495 33.5666C24.0979 33.6536 23.5127 33.675 18.5759 33.675C13.6391 33.675 13.0465 33.6536 11.102 33.5666C9.295 33.4873 8.31923 33.1837 7.66871 32.9308C6.86658 32.6343 6.13644 32.1645 5.5438 31.5501C4.92942 30.9501 4.4596 30.2273 4.16314 29.4252C3.91017 28.7747 3.60665 27.7916 3.52731 25.9919C3.44035 24.0404 3.41889 23.4548 3.41889 18.518C3.41889 13.5813 3.44035 12.9886 3.52731 11.0444C3.60665 9.23741 3.91017 8.26163 4.16314 7.61111C4.4596 6.8087 4.92942 6.07884 5.55114 5.48592C6.15084 4.87154 6.87363 4.40172 7.67605 4.10555C8.32657 3.85257 9.30969 3.54905 11.1093 3.46943C13.0609 3.38275 13.6465 3.36101 18.5829 3.36101C23.527 3.36101 24.1123 3.38275 26.0568 3.46943C27.8638 3.54905 28.8396 3.85257 29.4901 4.10555C30.2923 4.40172 31.0224 4.87154 31.615 5.48592C32.2294 6.0859 32.6992 6.8087 32.9957 7.61111C33.2487 8.26163 33.5522 9.24447 33.6318 11.0444C33.7185 12.996 33.7402 13.5813 33.7402 18.518C33.7402 23.4548 33.7185 24.033 33.6318 25.9846Z" fill="white"/>
<path d="M18.5688 8.99902C13.3214 8.99902 9.06396 13.2562 9.06396 18.5038C9.06396 23.7514 13.3214 28.0086 18.5688 28.0086C23.8164 28.0086 28.0735 23.7514 28.0735 18.5038C28.0735 13.2562 23.8164 8.99902 18.5688 8.99902ZM18.5688 24.6693C15.1645 24.6693 12.4032 21.9083 12.4032 18.5038C12.4032 15.0993 15.1645 12.3383 18.5688 12.3383C21.9732 12.3383 24.7343 15.0993 24.7343 18.5038C24.7343 21.9083 21.9732 24.6693 18.5688 24.6693V24.6693Z" fill="white"/>
<path d="M30.6681 8.62323C30.6681 9.8486 29.6746 10.8422 28.4489 10.8422C27.2235 10.8422 26.23 9.8486 26.23 8.62323C26.23 7.39758 27.2235 6.4043 28.4489 6.4043C29.6746 6.4043 30.6681 7.39758 30.6681 8.62323V8.62323Z" fill="white"/>
</g>
<defs>
<clipPath id="clip0">
<rect width="37" height="37" fill="white"/>
</clipPath>
</defs>
</svg>
