<svg width="57" height="37" viewBox="0 0 22 22" fill="none" xmlns="http://www.w3.org/2000/svg">
<path d="M16.4695 0.00964355H5.51309C2.4774 0.00964355 0 2.48704 0 5.52273V16.4966C0 19.5148 2.4774 21.9922 5.51309 21.9922H16.4869C19.5226 21.9922 22 19.5148 22 16.4791V5.52273C21.9826 2.48704 19.5052 0.00964355 16.4695 0.00964355ZM7.32752 17.805H4.18715V8.73288H7.32752V17.805ZM5.73989 7.33716C4.85012 7.33716 4.13481 6.62186 4.13481 5.73209C4.13481 4.84232 4.85012 4.12701 5.73989 4.12701C6.62966 4.12701 7.34496 4.84232 7.34496 5.73209C7.32752 6.62186 6.61221 7.33716 5.73989 7.33716ZM17.8128 17.805H17.7954H15.1784V13.4085C15.1784 12.3443 15.0389 10.9835 13.5908 10.9835C12.1079 10.9835 11.8636 12.1349 11.8636 13.3387V17.805H9.24663V8.73288H11.6891V9.95413H11.7589C12.1427 9.25627 13.0325 8.71543 14.4282 8.71543C17.3069 8.71543 17.8128 10.3728 17.8128 12.8328V17.805Z" fill="white"/>
</svg>
